<svg xmlns="http://www.w3.org/2000/svg" viewBox="0 0 48 48" width="48" height="48">
  <defs>
    <linearGradient id="pf" x1="6" y1="2" x2="42" y2="46" gradientUnits="userSpaceOnUse">
      <stop stop-color="#7c3aed"/>
      <stop offset="1" stop-color="#db2777"/>
    </linearGradient>
  </defs>
  <path d="M24 14c-3-2.5 3-4-0.5-7.4C21.6 4.6 25 3 24 1" fill="none" stroke="url(#pf)" stroke-width="2.2" stroke-linecap="round"/>
  <g fill="url(#pf)">
    <path d="M11 17 4 20l7 3z"/>
    <path d="M12 16h26a3 3 0 0 1 3 3v1a3 3 0 0 1-3 3H12a3 3 0 0 1-3-3v-1a3 3 0 0 1 3-3z"/>
    <path d="M21 23h6v7h-6z"/>
    <path d="M12 30h24l2.5 5h-29z"/>
  </g>
</svg>
